<svg width="50" height="50" xmlns="http://www.w3.org/2000/svg">
 <!-- Created with SVG Editor - http://github.com/mzalive/SVG Editor/ -->

 <g>
  <title>background</title>
  <rect fill="none" id="canvas_background" height="52" width="52" y="-1" x="-1"/>
  <g display="none" overflow="visible" y="0" x="0" height="100%" width="100%" id="canvasGrid">
   <rect fill="url(#gridpattern)" stroke-width="0" y="0" x="0" height="100%" width="100%"/>
  </g>
 </g>
 <g>
  <title>Layer 1</title>
  <defs>
   <style>.cls-1{fill:#666;}</style>
  </defs>
  <g stroke="null" id="svg_7">
   <path stroke="null" id="svg_5" d="m25.000001,24.451277a7.746557,7.746557 0 1 1 7.745501,-7.746557a7.753951,7.753951 0 0 1 -7.745501,7.746557zm0,-13.25914a5.513639,5.513639 0 1 0 5.512583,5.512583a5.51892,5.51892 0 0 0 -5.512583,-5.512583z" class="cls-1"/>
   <path stroke="null" id="svg_6" d="m37.365551,41.041838l-24.7311,0l-1.116459,-1.116459a13.482009,13.482009 0 1 1 26.964019,0l-1.116459,1.116459zm-23.561829,-2.232918l22.392557,0a11.250147,11.250147 0 0 0 -22.392557,0z" class="cls-1"/>
  </g>
 </g>
</svg>
